<svg width="20" height="20" viewBox="0 0 20 20" fill="none" xmlns="http://www.w3.org/2000/svg">
<path d="M3.59408 6.08949C3.61348 5.89374 3.53925 5.69885 3.39159 5.56723L1.89823 3.76761V3.49763H6.53691L10.1227 11.361L13.2747 3.49763H17.6966V3.76678L16.4184 4.99099C16.3087 5.07536 16.2555 5.21373 16.2766 5.34956V14.3485C16.2555 14.4852 16.3087 14.6227 16.4184 14.7071L17.6662 15.9313V16.2004H11.3924V15.9313L12.6825 14.6767C12.8107 14.5502 12.8107 14.5122 12.8107 14.319V7.04455L9.21736 16.1709H8.73224L4.54916 7.04455V13.1606C4.51457 13.4179 4.59978 13.6769 4.78117 13.8634L6.46183 15.9026V16.1717H1.69659V15.9026L3.37725 13.8634C3.55611 13.6769 3.63711 13.4162 3.59408 13.1606V6.08949Z" fill="#7D59C3"/>
</svg>
