<svg width="20" height="20" viewBox="0 0 20 20" fill="none" xmlns="http://www.w3.org/2000/svg">
<path d="M4.23083 7.88082C4.23083 7.23248 4.34416 6.61998 4.56749 6.04832C4.78087 5.49307 5.09789 4.98346 5.50166 4.54665C5.90461 4.11558 6.36572 3.74282 6.87166 3.43915C7.39076 3.12511 7.95274 2.88819 8.53999 2.73582C9.13434 2.57975 9.74634 2.50105 10.3608 2.50165C11.31 2.50165 12.1933 2.70248 13.0125 3.10248C13.821 3.49519 14.5091 4.09786 15.005 4.84748C15.5167 5.60998 15.7708 6.47248 15.7708 7.43415C15.7708 8.01082 15.7142 8.57498 15.5983 9.12665C15.4846 9.67801 15.3038 10.2134 15.06 10.7208C14.8276 11.212 14.5238 11.6661 14.1583 12.0683C13.7911 12.4641 13.3463 12.7801 12.8517 12.9967C12.3147 13.232 11.7338 13.3504 11.1475 13.3442C10.74 13.3442 10.3333 13.2483 9.93166 13.0558C9.52999 12.8642 9.24166 12.6008 9.06833 12.2633C9.00749 12.4975 8.92416 12.8358 8.81333 13.2783C8.70666 13.72 8.63499 14.005 8.60333 14.1342C8.56999 14.2625 8.50833 14.4767 8.41833 14.7733C8.35729 14.9928 8.27899 15.207 8.18416 15.4142L7.89749 15.9758C7.77352 16.2168 7.63493 16.4501 7.48249 16.6742C7.33166 16.8925 7.14499 17.1533 6.92249 17.4533L6.79833 17.4975L6.71583 17.4075C6.62666 16.4633 6.58083 15.8983 6.58083 15.7117C6.58083 15.1592 6.64666 14.5392 6.77666 13.8508C6.90416 13.1633 7.10583 12.2992 7.37666 11.26C7.64749 10.2217 7.80249 9.61082 7.84416 9.42999C7.65333 9.04082 7.55666 8.53249 7.55666 7.90749C7.55666 7.40832 7.71249 6.94082 8.02499 6.50082C8.33833 6.06248 8.73416 5.84332 9.21416 5.84332C9.58166 5.84332 9.86666 5.96498 10.0708 6.20915C10.2758 6.45248 10.3758 6.75915 10.3758 7.13332C10.3758 7.52998 10.2442 8.10415 9.97916 8.85499C9.71416 9.60665 9.58249 10.1675 9.58249 10.54C9.58249 10.9175 9.71749 11.2333 9.98749 11.4808C10.2539 11.7284 10.6063 11.8626 10.97 11.855C11.3 11.855 11.6058 11.78 11.89 11.6292C12.1697 11.4827 12.4118 11.2737 12.5975 11.0183C13.0018 10.4636 13.2901 9.83292 13.445 9.16415C13.525 8.81248 13.5867 8.47832 13.625 8.16415C13.6658 7.84832 13.6833 7.54998 13.6833 7.26665C13.6833 6.22748 13.3533 5.41748 12.6975 4.83748C12.0383 4.25748 11.18 3.96915 10.1242 3.96915C8.92333 3.96915 7.91916 4.35748 7.11499 5.13665C6.30999 5.91332 5.90499 6.90082 5.90499 8.09832C5.90499 8.36249 5.94499 8.61749 6.02083 8.86415C6.09499 9.10998 6.17583 9.30582 6.26333 9.45082C6.34999 9.59332 6.43166 9.73249 6.50583 9.86082C6.58083 9.98915 6.61999 10.0808 6.61999 10.1358C6.61999 10.3042 6.57583 10.5233 6.48666 10.7942C6.39416 11.065 6.28499 11.2 6.15333 11.2C6.14083 11.2 6.08916 11.1908 5.99916 11.1717C5.68746 11.0786 5.40597 10.9046 5.18333 10.6675C4.94702 10.4217 4.76054 10.1325 4.63416 9.81582C4.50814 9.50028 4.40999 9.17431 4.34083 8.84165C4.2661 8.52688 4.22918 8.20433 4.23083 7.88082Z" fill="#7D59C3"/>
</svg>
