<svg width="20" height="20" viewBox="0 0 20 20" fill="none" xmlns="http://www.w3.org/2000/svg">
<g clip-path="url(#clip0_45_14)">
<path d="M9.99996 1.66669C5.39746 1.66669 1.66663 5.39752 1.66663 10C1.66663 14.1592 4.71413 17.6067 8.69829 18.2325V12.4084H6.58163V10H8.69829V8.16419C8.69829 6.07585 9.94163 4.92252 11.8458 4.92252C12.7575 4.92252 13.7108 5.08502 13.7108 5.08502V7.13502H12.6608C11.625 7.13502 11.3025 7.77752 11.3025 8.43669V10H13.6133L13.2441 12.4084H11.3025V18.2325C15.2858 17.6075 18.3333 14.1584 18.3333 10C18.3333 5.39752 14.6025 1.66669 9.99996 1.66669Z" fill="#7C5AC7"/>
</g>
<defs>
<clipPath id="clip0_45_14">
<rect width="20" height="20" fill="white"/>
</clipPath>
</defs>
</svg>
