<svg width="120" height="70" viewBox="0 0 120 70" fill="none" xmlns="http://www.w3.org/2000/svg">
<path d="M119.129 53.1028C112.447 61.5974 102.792 67.6645 91.4646 69.4617C79.8181 71.3096 68.5349 68.3054 59.5541 61.9178C66.2352 53.4233 75.8935 47.3561 87.2181 45.5589C98.862 43.7137 110.148 46.7152 119.129 53.1028Z" fill="#322D76"/>
<path d="M119.129 53.1028C112.447 61.5974 102.792 67.6645 91.4646 69.4617C79.8181 71.3096 68.5349 68.3054 59.5541 61.9178C66.2352 53.4233 75.8935 47.3561 87.2181 45.5589C98.862 43.7137 110.148 46.7152 119.129 53.1028Z" stroke="white"/>
<path d="M0 52.9485C8.7524 46.7585 19.6851 43.765 31.0435 45.3539C42.7212 46.9882 52.7091 53.1675 59.5537 61.9184C50.8013 68.1084 39.866 71.102 28.5102 69.5131C16.8377 67.8761 6.84722 61.6968 0 52.9485Z" fill="#322D76"/>
<path d="M0 52.9485C8.7524 46.7585 19.6851 43.765 31.0435 45.3539C42.7212 46.9882 52.7091 53.1675 59.5537 61.9184C50.8013 68.1084 39.866 71.102 28.5102 69.5131C16.8377 67.8761 6.84722 61.6968 0 52.9485Z" stroke="white"/>
<g opacity="0.8">
<path d="M99.15 15.2806C99.4666 26.2052 95.9859 37.2794 88.5339 46.2386C80.8717 55.4488 70.4114 60.7389 59.5565 61.9192C59.2399 50.9946 62.7206 39.9204 70.1726 30.9612C77.8322 21.751 88.2925 16.4582 99.15 15.2806Z" fill="#A6244B"/>
<path d="M99.15 15.2806C99.4666 26.2052 95.9859 37.2794 88.5339 46.2386C80.8717 55.4488 70.4114 60.7389 59.5565 61.9192C59.2399 50.9946 62.7206 39.9204 70.1726 30.9612C77.8322 21.751 88.2925 16.4582 99.15 15.2806Z" stroke="white"/>
</g>
<g opacity="0.8">
<path d="M20.6432 14.6745C31.1891 15.9857 41.312 21.1769 48.8107 30.0961C56.5197 39.2663 60.0419 50.6956 59.554 61.9167C49.008 60.6055 38.8825 55.4116 31.3864 46.4951C23.6774 37.3276 20.1552 25.8956 20.6432 14.6745Z" fill="#A6244B"/>
<path d="M20.6432 14.6745C31.1891 15.9857 41.312 21.1769 48.8107 30.0961C56.5197 39.2663 60.0419 50.6956 59.554 61.9167C49.008 60.6055 38.8825 55.4116 31.3864 46.4951C23.6774 37.3276 20.1552 25.8956 20.6432 14.6745Z" stroke="white"/>
</g>
<path d="M60.1639 0C67.307 8.08866 71.6625 18.829 71.6625 30.6216C71.6625 42.7452 67.0578 53.7606 59.5539 61.9187C52.4108 53.8301 48.0554 43.087 48.0554 31.2972C48.0554 19.1762 52.66 8.15809 60.1639 0Z" fill="#765EA8"/>
<path d="M60.1639 0C67.307 8.08866 71.6625 18.829 71.6625 30.6216C71.6625 42.7452 67.0578 53.7606 59.5539 61.9187C52.4108 53.8301 48.0554 43.087 48.0554 31.2972C48.0554 19.1762 52.66 8.15809 60.1639 0Z" stroke="white"/>
</svg>
