<svg width="20" height="20" viewBox="0 0 20 20" fill="none" xmlns="http://www.w3.org/2000/svg">
<g clip-path="url(#clip0_45_20)">
<path d="M18.4683 4.71333C17.8321 4.99474 17.1574 5.17956 16.4666 5.26167C17.1948 4.82619 17.7397 4.14084 18 3.33333C17.3166 3.74 16.5675 4.025 15.7866 4.17917C15.2622 3.61798 14.5669 3.2458 13.8091 3.12049C13.0513 2.99517 12.2733 3.12374 11.596 3.48621C10.9188 3.84868 10.3803 4.42474 10.0642 5.12483C9.74818 5.82492 9.67227 6.60982 9.84832 7.3575C8.46257 7.28804 7.10693 6.92794 5.86939 6.30055C4.63185 5.67317 3.54009 4.79254 2.66498 3.71583C2.35522 4.24787 2.19245 4.85269 2.19332 5.46833C2.19332 6.67667 2.80832 7.74417 3.74332 8.36917C3.18999 8.35175 2.64884 8.20232 2.16498 7.93333V7.97667C2.16515 8.78142 2.44362 9.56135 2.95319 10.1842C3.46275 10.8071 4.17205 11.2346 4.96082 11.3942C4.44716 11.5334 3.90857 11.5539 3.38582 11.4542C3.60821 12.1469 4.04166 12.7527 4.62548 13.1868C5.2093 13.6208 5.91426 13.8615 6.64165 13.875C5.91872 14.4428 5.09096 14.8625 4.20572 15.1101C3.32047 15.3578 2.39509 15.4285 1.48248 15.3183C3.07556 16.3429 4.93006 16.8868 6.82415 16.885C13.235 16.885 16.7408 11.5742 16.7408 6.96833C16.7408 6.81833 16.7366 6.66667 16.73 6.51833C17.4124 6.02514 18.0013 5.41418 18.4691 4.71417L18.4683 4.71333Z" fill="#7C5AC7"/>
</g>
<defs>
<clipPath id="clip0_45_20">
<rect width="20" height="20" fill="white"/>
</clipPath>
</defs>
</svg>
