<svg width="20" height="20" viewBox="0 0 20 20" fill="none" xmlns="http://www.w3.org/2000/svg">
<g clip-path="url(#clip0_45_62)">
<path d="M17.9525 5.41498C18.3334 6.89998 18.3334 9.99998 18.3334 9.99998C18.3334 9.99998 18.3334 13.1 17.9525 14.585C17.7409 15.4058 17.1217 16.0516 16.3375 16.27C14.9134 16.6666 10 16.6666 10 16.6666C10 16.6666 5.08919 16.6666 3.66252 16.27C2.87502 16.0483 2.25669 15.4033 2.04752 14.585C1.66669 13.1 1.66669 9.99998 1.66669 9.99998C1.66669 9.99998 1.66669 6.89998 2.04752 5.41498C2.25919 4.59415 2.87835 3.94831 3.66252 3.72998C5.08919 3.33331 10 3.33331 10 3.33331C10 3.33331 14.9134 3.33331 16.3375 3.72998C17.125 3.95165 17.7434 4.59665 17.9525 5.41498ZM8.33335 12.9166L13.3334 9.99998L8.33335 7.08331V12.9166Z" fill="#7D59C3"/>
</g>
<defs>
<clipPath id="clip0_45_62">
<rect width="20" height="20" fill="white"/>
</clipPath>
</defs>
</svg>
